<?xml version="1.0" encoding="utf-8"?>
<!-- Generator: Adobe Illustrator 26.0.1, SVG Export Plug-In . SVG Version: 6.00 Build 0)  -->
<svg version="1.1" id="Layer_1" xmlns="http://www.w3.org/2000/svg" xmlns:xlink="http://www.w3.org/1999/xlink" x="0px" y="0px"
	 viewBox="0 0 141 44" style="enable-background:new 0 0 141 44;" xml:space="preserve">
<style type="text/css">
	.st0{fill:#00B96B;}
	.st1{fill:#FFFFFF;}
</style>
<path class="st0" d="M4.5,0h132c2.2,0,4,1.8,4,4v36c0,2.2-1.8,4-4,4H4.5c-2.2,0-4-1.8-4-4V4C0.5,1.8,2.3,0,4.5,0z"/>
<path class="st1" d="M26.3,21.4H16l2.7-2.7c0.1-0.1,0.2-0.2,0.2-0.4c0-0.2-0.1-0.3-0.2-0.4c-0.1-0.1-0.2-0.2-0.4-0.2
	c-0.2,0-0.3,0.1-0.4,0.2l-3.7,3.7c0,0-0.1,0.1-0.1,0.2c-0.1,0.1-0.1,0.3,0,0.4c0,0.1,0.1,0.1,0.1,0.2l3.7,3.7
	c0.1,0.1,0.2,0.2,0.4,0.2c0.1,0,0.3-0.1,0.4-0.2c0.1-0.1,0.2-0.2,0.2-0.4c0-0.2-0.1-0.3-0.2-0.4L16,22.6h10.3c0.3,0,0.6-0.3,0.6-0.6
	C26.9,21.7,26.7,21.4,26.3,21.4z"/>
<path class="st1" d="M37.5,27h4.1c2.3,0,3.5-1.2,3.5-2.8c0-1.5-1.1-2.4-2.2-2.5v-0.1c1-0.2,1.8-0.9,1.8-2.2c0-1.5-1.1-2.6-3.3-2.6
	h-3.9V27z M39.3,25.5v-3h2c1.1,0,1.8,0.7,1.8,1.6c0,0.8-0.6,1.4-1.9,1.4H39.3z M39.3,21.1v-2.8h1.9c1.1,0,1.6,0.6,1.6,1.4
	c0,0.9-0.7,1.5-1.7,1.5H39.3z M48.8,27.2c1.2,0,1.9-0.6,2.2-1.2h0.1v1h1.7v-5.1c0-2-1.6-2.6-3.1-2.6c-1.6,0-2.8,0.7-3.2,2.1l1.7,0.2
	c0.2-0.5,0.7-1,1.6-1c0.8,0,1.3,0.4,1.3,1.2v0c0,0.5-0.5,0.5-1.9,0.7c-1.5,0.2-2.9,0.6-2.9,2.3C46.3,26.4,47.4,27.2,48.8,27.2z
	 M49.3,25.8c-0.8,0-1.3-0.3-1.3-1c0-0.7,0.6-1,1.4-1.1c0.5-0.1,1.4-0.2,1.7-0.4v0.9C51.1,25.1,50.4,25.8,49.3,25.8z M58,27.1
	c1.9,0,3.1-1.1,3.3-2.8h-1.7c-0.2,0.8-0.7,1.3-1.5,1.3c-1.1,0-1.8-0.9-1.8-2.5c0-1.5,0.7-2.5,1.8-2.5c0.9,0,1.4,0.6,1.5,1.3h1.7
	c-0.1-1.7-1.4-2.7-3.3-2.7c-2.2,0-3.6,1.6-3.6,3.9C54.3,25.5,55.7,27.1,58,27.1z M62.7,27h1.8v-2.6l0.7-0.7l2.3,3.3h2.2l-3.1-4.3
	l3-3.3h-2.1l-2.7,3.1h-0.1v-5.6h-1.8V27z M78,19.4h-1.5v-1.8h-1.8v1.8h-1.1v1.4h1.1V25c0,1.4,1,2.1,2.4,2.1c0.5,0,0.9-0.1,1.1-0.2
	l-0.3-1.4c-0.1,0-0.3,0.1-0.5,0.1c-0.5,0-0.8-0.2-0.8-0.9v-3.9H78V19.4z M82.8,27.1c2.2,0,3.7-1.6,3.7-3.9c0-2.4-1.4-3.9-3.7-3.9
	s-3.7,1.6-3.7,3.9C79.1,25.6,80.5,27.1,82.8,27.1z M82.8,25.7c-1.2,0-1.8-1.1-1.8-2.5c0-1.4,0.6-2.5,1.8-2.5c1.2,0,1.8,1.1,1.8,2.5
	C84.6,24.6,84,25.7,82.8,25.7z M93.2,22.5c0-1.1,0.7-1.7,1.7-1.7c0.9,0,1.5,0.6,1.5,1.6V27h1.8v-4.9c0-1.8-1-2.9-2.6-2.9
	c-1.2,0-1.9,0.5-2.3,1.4h-0.1v-3.8h-1.8V27h1.8V22.5z M103.3,27.1c2.2,0,3.7-1.6,3.7-3.9c0-2.4-1.4-3.9-3.7-3.9s-3.7,1.6-3.7,3.9
	C99.7,25.6,101.1,27.1,103.3,27.1z M103.3,25.7c-1.2,0-1.8-1.1-1.8-2.5c0-1.4,0.6-2.5,1.8-2.5c1.2,0,1.8,1.1,1.8,2.5
	C105.2,24.6,104.6,25.7,103.3,25.7z M108.5,27h1.8v-4.6c0-0.9,0.6-1.6,1.4-1.6c0.8,0,1.3,0.5,1.3,1.3V27h1.8v-4.8
	c0-0.9,0.5-1.5,1.4-1.5c0.7,0,1.3,0.4,1.3,1.4V27h1.8v-5.1c0-1.7-1-2.6-2.4-2.6c-1.1,0-2,0.5-2.3,1.4h-0.1c-0.3-0.9-1-1.4-2.1-1.4
	c-1,0-1.8,0.5-2.1,1.4h-0.1v-1.3h-1.7V27z M124.5,27.1c1.8,0,3-0.9,3.3-2.2l-1.7-0.2c-0.2,0.6-0.8,1-1.6,1c-1.2,0-1.9-0.8-1.9-2.1
	h5.3v-0.6c0-2.7-1.6-3.9-3.5-3.9c-2.2,0-3.6,1.6-3.6,4C120.8,25.6,122.2,27.1,124.5,27.1z M122.5,22.5c0.1-1,0.8-1.8,1.8-1.8
	c1,0,1.7,0.8,1.7,1.8H122.5z"/>
</svg>
