<?xml version="1.0" encoding="utf-8"?>
<!-- Generator: Adobe Illustrator 26.0.1, SVG Export Plug-In . SVG Version: 6.00 Build 0)  -->
<svg version="1.1" id="Layer_1" xmlns="http://www.w3.org/2000/svg" xmlns:xlink="http://www.w3.org/1999/xlink" x="0px" y="0px"
	 viewBox="0 0 140 44" style="enable-background:new 0 0 140 44;" xml:space="preserve">
<style type="text/css">
	.st0{fill:#00B96B;}
	.st1{fill:none;stroke:#FFFFFF;stroke-width:1.4;stroke-linecap:round;stroke-linejoin:round;}
	.st2{fill:#FFFFFF;}
</style>
<path class="st0" d="M4,0h132c2.2,0,4,1.8,4,4v36c0,2.2-1.8,4-4,4H4c-2.2,0-4-1.8-4-4V4C0,1.8,1.8,0,4,0z"/>
<path class="st1" d="M26,24v2.7c0,0.4-0.1,0.7-0.4,0.9C25.4,27.9,25,28,24.7,28h-9.3c-0.4,0-0.7-0.1-0.9-0.4
	C14.1,27.4,14,27,14,26.7V24"/>
<path class="st1" d="M16.7,20.7L20,24l3.3-3.3"/>
<path class="st1" d="M20,24v-8"/>
<path class="st2" d="M40.5,27c3.1,0,4.9-1.9,4.9-5.1c0-3.2-1.8-5.1-4.9-5.1H37V27H40.5z M38.8,25.4v-7h1.6c2.1,0,3.1,1.2,3.1,3.5
	c0,2.3-1.1,3.5-3.2,3.5H38.8z M50.4,27.1c2.2,0,3.7-1.6,3.7-3.9c0-2.4-1.4-3.9-3.7-3.9s-3.7,1.6-3.7,3.9
	C46.7,25.6,48.2,27.1,50.4,27.1z M50.4,25.7c-1.2,0-1.8-1.1-1.8-2.5c0-1.4,0.6-2.5,1.8-2.5c1.2,0,1.8,1.1,1.8,2.5
	C52.2,24.6,51.6,25.7,50.4,25.7z M57,27h1.9l1.4-5.2h0.1l1.4,5.2h1.9l2.2-7.6H64l-1.3,5.3h-0.1l-1.4-5.3h-1.8L58,24.7H58l-1.3-5.4
	h-1.8L57,27z M68.9,22.5c0-1.1,0.7-1.7,1.6-1.7c0.9,0,1.5,0.6,1.5,1.6V27h1.8v-4.9c0-1.8-1-2.9-2.6-2.9c-1.1,0-1.9,0.5-2.3,1.4h-0.1
	v-1.3h-1.7V27h1.8V22.5z M77.4,16.8h-1.8V27h1.8V16.8z M82.6,27.1c2.2,0,3.7-1.6,3.7-3.9c0-2.4-1.4-3.9-3.7-3.9
	c-2.2,0-3.7,1.6-3.7,3.9C79,25.6,80.4,27.1,82.6,27.1z M82.6,25.7c-1.2,0-1.8-1.1-1.8-2.5c0-1.4,0.6-2.5,1.8-2.5
	c1.2,0,1.8,1.1,1.8,2.5C84.4,24.6,83.8,25.7,82.6,25.7z M90,27.2c1.2,0,1.9-0.6,2.2-1.2h0.1v1H94v-5.1c0-2-1.6-2.6-3.1-2.6
	c-1.6,0-2.8,0.7-3.2,2.1l1.7,0.2c0.2-0.5,0.7-1,1.6-1c0.8,0,1.3,0.4,1.3,1.2v0c0,0.5-0.5,0.5-1.9,0.7c-1.5,0.2-2.9,0.6-2.9,2.3
	C87.4,26.4,88.5,27.2,90,27.2z M90.5,25.8c-0.8,0-1.3-0.3-1.3-1c0-0.7,0.6-1,1.4-1.1c0.5-0.1,1.4-0.2,1.7-0.4v0.9
	C92.2,25.1,91.5,25.8,90.5,25.8z M98.7,27.1c1.3,0,1.9-0.8,2.2-1.3h0.1V27h1.8V16.8h-1.8v3.8h-0.1c-0.3-0.6-0.8-1.4-2.2-1.4
	c-1.8,0-3.2,1.4-3.2,3.9C95.5,25.7,96.9,27.1,98.7,27.1z M99.2,25.7c-1.2,0-1.8-1-1.8-2.5c0-1.4,0.6-2.4,1.8-2.4
	c1.2,0,1.8,1,1.8,2.4C101,24.7,100.3,25.7,99.2,25.7z M116.9,20.3c-0.3-2.3-2.1-3.6-4.3-3.6c-2.7,0-4.7,1.9-4.7,5.2
	c0,3.3,2,5.2,4.7,5.2c2.4,0,4-1.6,4.3-3.5l-1.9,0c-0.2,1.2-1.2,1.9-2.4,1.9c-1.7,0-2.8-1.2-2.8-3.6c0-2.3,1.2-3.6,2.8-3.6
	c1.2,0,2.2,0.7,2.4,1.9H116.9z M120,16.8h-2l3.6,10.2h2.3l3.6-10.2h-2l-2.6,8h-0.1L120,16.8z"/>
</svg>
