<?xml version="1.0" encoding="utf-8"?>
<!-- Generator: Adobe Illustrator 26.0.1, SVG Export Plug-In . SVG Version: 6.00 Build 0)  -->
<svg version="1.1" id="Layer_1" xmlns="http://www.w3.org/2000/svg" xmlns:xlink="http://www.w3.org/1999/xlink" x="0px" y="0px"
	 viewBox="0 0 25 24" style="enable-background:new 0 0 25 24;" xml:space="preserve">
<style type="text/css">
	.st0{fill:#00B96B;}
	.st1{fill-rule:evenodd;clip-rule:evenodd;fill:#FFFFFF;}
</style>
<path class="st0" d="M4.5,0h16c2.2,0,4,1.8,4,4v16c0,2.2-1.8,4-4,4h-16c-2.2,0-4-1.8-4-4V4C0.5,1.8,2.3,0,4.5,0z"/>
<path class="st1" d="M19.6,10.7c-0.2-0.9-0.5-1.8-1.1-2.5c-0.3-0.4-0.5-0.7-0.9-1.1c-1-1-2.2-1.7-3.6-1.9C12.7,4.9,11.2,5,9.9,5.5
	C8.6,6.1,7.5,7,6.7,8.1C6.5,8.5,6.2,8.9,6.1,9.3c-0.4,0.9-0.6,1.8-0.6,2.8c0,1,0.2,1.9,0.6,2.8c0.2,0.4,0.4,0.8,0.7,1.2
	c0.7,1,1.5,1.8,2.6,2.3c1,0.5,2.2,0.8,3.3,0.8c1.9,0,3.7-0.8,5-2.1c0.3-0.3,0.6-0.7,0.9-1.1c0.5-0.8,0.9-1.7,1.1-2.6
	C19.8,12.6,19.8,11.6,19.6,10.7z M18.7,12.1c-1.4-0.3-2.8-0.3-4.2-0.2l-0.1-0.3c-0.1-0.3-0.3-0.6-0.4-0.9c2.4-1,3.4-2.4,3.4-2.4
	C18.2,9.3,18.7,10.7,18.7,12.1z M16.6,7.6c0,0-0.9,1.3-3.2,2.2c-0.7-1.2-1.4-2.4-2.3-3.6c0.9-0.2,1.9-0.2,2.9,0
	C15,6.4,15.9,6.9,16.6,7.6L16.6,7.6z M10,6.6c0.8,1.1,1.6,2.3,2.3,3.5c-1.8,0.5-3.7,0.7-5.6,0.7c0.2-0.9,0.6-1.8,1.2-2.5
	C8.4,7.6,9.2,7,10,6.6L10,6.6z M6.5,12.1c0-0.1,0-0.1,0-0.2c2.1,0,4.2-0.3,6.2-0.9c0.2,0.3,0.3,0.7,0.5,1L13,12.2
	c-3.3,1.1-4.9,4-4.9,4C7.1,15.1,6.5,13.6,6.5,12.1z M12.6,18.2c-1.4,0-2.8-0.5-3.9-1.4l0.1,0.1c0,0,1.2-2.5,4.8-3.8h0
	c0.6,1.5,1,3,1.3,4.6C14.2,18,13.4,18.2,12.6,18.2z M16,17.2c-0.3-1.5-0.7-2.9-1.2-4.3c1.3-0.2,2.6-0.1,3.8,0.3
	c-0.1,0.8-0.4,1.6-0.9,2.3C17.3,16.1,16.7,16.7,16,17.2z"/>
</svg>
