<?xml version="1.0" encoding="utf-8"?>
<!-- Generator: Adobe Illustrator 26.0.1, SVG Export Plug-In . SVG Version: 6.00 Build 0)  -->
<svg version="1.1" id="Layer_1" xmlns="http://www.w3.org/2000/svg" xmlns:xlink="http://www.w3.org/1999/xlink" x="0px" y="0px"
	 viewBox="0 0 25 24" style="enable-background:new 0 0 25 24;" xml:space="preserve">
<style type="text/css">
	.st0{fill:#00B96B;}
	.st1{fill:#FFFFFF;}
</style>
<path class="st0" d="M4.5,0h16c2.2,0,4,1.8,4,4v16c0,2.2-1.8,4-4,4h-16c-2.2,0-4-1.8-4-4V4C0.5,1.8,2.3,0,4.5,0z"/>
<path class="st1" d="M9,9.8h1.5V8.3c0-0.6,0-1.6,0.5-2.2c0.3-0.4,0.6-0.7,1-0.8C12.4,5.1,12.8,5,13.3,5c0.9,0,1.8,0.1,2.7,0.3
	l-0.4,2.2c-0.4-0.1-0.8-0.2-1.2-0.2c-0.6,0-1.1,0.2-1.1,0.8v1.7h2.4l-0.2,2.2h-2.2v7.5h-2.8v-7.5H9V9.8z"/>
</svg>
