<?xml version="1.0" encoding="utf-8"?>
<!-- Generator: Adobe Illustrator 26.0.1, SVG Export Plug-In . SVG Version: 6.00 Build 0)  -->
<svg version="1.1" id="Layer_1" xmlns="http://www.w3.org/2000/svg" xmlns:xlink="http://www.w3.org/1999/xlink" x="0px" y="0px"
	 viewBox="0 0 25 24" style="enable-background:new 0 0 25 24;" xml:space="preserve">
<style type="text/css">
	.st0{fill:#00B96B;}
	.st1{fill:#FFFFFF;}
</style>
<path class="st0" d="M4.5,0h16c2.2,0,4,1.8,4,4v16c0,2.2-1.8,4-4,4h-16c-2.2,0-4-1.8-4-4V4C0.5,1.8,2.3,0,4.5,0z"/>
<path class="st1" d="M16.7,4H9.3C6.9,4,5,5.9,5,8.3v7.3C5,18.1,6.9,20,9.3,20h7.3c2.4,0,4.3-1.9,4.3-4.3V8.3C21,5.9,19.1,4,16.7,4
	L16.7,4z M20.1,15.7c0,1.9-1.5,3.4-3.4,3.4H9.3c-1.9,0-3.4-1.5-3.4-3.4V8.3c0-1.9,1.5-3.4,3.4-3.4h7.3c1.9,0,3.4,1.5,3.4,3.4V15.7z"
	/>
<path class="st1" d="M13,7.6c-2.4,0-4.4,2-4.4,4.4c0,2.4,2,4.4,4.4,4.4c2.4,0,4.4-2,4.4-4.4C17.4,9.6,15.4,7.6,13,7.6z M13,15.4
	c-1.9,0-3.4-1.5-3.4-3.4c0-1.9,1.5-3.4,3.4-3.4c1.9,0,3.4,1.5,3.4,3.4C16.4,13.9,14.9,15.4,13,15.4z"/>
<path class="st1" d="M17.5,6.1c-0.7,0-1.3,0.6-1.3,1.3c0,0.7,0.6,1.3,1.3,1.3s1.3-0.6,1.3-1.3S18.2,6.1,17.5,6.1z M17.5,7.7
	c-0.2,0-0.4-0.2-0.4-0.4c0-0.2,0.2-0.4,0.4-0.4s0.4,0.2,0.4,0.4C17.8,7.6,17.7,7.7,17.5,7.7z"/>
</svg>
