<?xml version="1.0" encoding="utf-8"?>
<!-- Generator: Adobe Illustrator 26.0.1, SVG Export Plug-In . SVG Version: 6.00 Build 0)  -->
<svg version="1.1" id="Layer_1" xmlns="http://www.w3.org/2000/svg" xmlns:xlink="http://www.w3.org/1999/xlink" x="0px" y="0px"
	 viewBox="0 0 25 24" style="enable-background:new 0 0 25 24;" xml:space="preserve">
<style type="text/css">
	.st0{fill:#00B96B;}
	.st1{fill:#FFFFFF;}
</style>
<path class="st0" d="M4.5,0h16c2.2,0,4,1.8,4,4v16c0,2.2-1.8,4-4,4h-16c-2.2,0-4-1.8-4-4V4C0.5,1.8,2.3,0,4.5,0z"/>
<path class="st1" d="M8.6,18.1H5.9V9.2h2.8V18.1z M7.2,8.1L7.2,8.1c-0.2,0-0.4,0-0.6-0.1C6.3,7.9,6.1,7.8,6,7.7
	C5.8,7.5,5.7,7.4,5.6,7.2C5.5,7,5.5,6.8,5.5,6.5C5.5,5.7,6.2,5,7.2,5c0.2,0,0.4,0,0.6,0.1C8,5.2,8.2,5.3,8.4,5.4
	c0.2,0.1,0.3,0.3,0.4,0.5c0.1,0.2,0.1,0.4,0.1,0.6C8.9,7.4,8.2,8.1,7.2,8.1z M19.7,18.1h-3.2v-4.6c0-1.2-0.5-2-1.6-2
	c-0.3,0-0.7,0.1-0.9,0.3c-0.3,0.2-0.5,0.5-0.6,0.8c-0.1,0.2-0.1,0.5-0.1,0.7v4.8h-3.1c0,0,0-8.1,0-8.9h3.1v1.4
	c0.2-0.6,1.2-1.5,2.8-1.5c2,0,3.5,1.3,3.5,4V18.1z"/>
</svg>
