<?xml version="1.0" encoding="utf-8"?>
<!-- Generator: Adobe Illustrator 26.0.1, SVG Export Plug-In . SVG Version: 6.00 Build 0)  -->
<svg version="1.1" id="Layer_1" xmlns="http://www.w3.org/2000/svg" xmlns:xlink="http://www.w3.org/1999/xlink" x="0px" y="0px"
	 viewBox="0 0 19 18" style="enable-background:new 0 0 19 18;" xml:space="preserve">
<style type="text/css">
	.st0{fill:none;stroke:#00B96B;stroke-width:1.2;stroke-linecap:round;stroke-linejoin:round;}
</style>
<path class="st0" d="M17,12.7v2.2c0,0.2,0,0.4-0.1,0.6c-0.1,0.2-0.2,0.4-0.4,0.5c-0.2,0.1-0.3,0.2-0.5,0.3c-0.2,0.1-0.4,0.1-0.6,0.1
	c-2.3-0.3-4.5-1-6.5-2.3C7.1,13,5.5,11.4,4.4,9.6c-1.3-2-2.1-4.2-2.3-6.5c0-0.2,0-0.4,0.1-0.6C2.2,2.3,2.3,2.1,2.5,2
	C2.6,1.8,2.8,1.7,3,1.6c0.2-0.1,0.4-0.1,0.6-0.1h2.2c0.4,0,0.7,0.1,1,0.4c0.3,0.2,0.5,0.6,0.5,0.9c0.1,0.7,0.3,1.4,0.5,2.1
	C8,5.2,8,5.5,7.9,5.7C7.9,6,7.7,6.3,7.5,6.5l-1,1c1.1,1.9,2.6,3.4,4.5,4.5l1-1c0.2-0.2,0.5-0.3,0.7-0.4s0.6,0,0.8,0.1
	c0.7,0.3,1.4,0.4,2.1,0.5c0.4,0.1,0.7,0.2,0.9,0.5C16.9,12,17,12.3,17,12.7z"/>
</svg>
