<?xml version="1.0" encoding="utf-8"?>
<!-- Generator: Adobe Illustrator 27.6.1, SVG Export Plug-In . SVG Version: 6.00 Build 0)  -->
<svg version="1.1" id="Layer_1" xmlns="http://www.w3.org/2000/svg" xmlns:xlink="http://www.w3.org/1999/xlink" x="0px" y="0px"
	 viewBox="0 0 16 12" style="enable-background:new 0 0 16 12;" xml:space="preserve">
<style type="text/css">
	.st0{fill:#53B772;}
</style>
<path class="st0" d="M1.7,5.3h10.9L9.2,1.9C9,1.8,9,1.6,9,1.4S9,1.1,9.2,0.9c0.1-0.1,0.3-0.2,0.5-0.2s0.4,0.1,0.5,0.2l4.6,4.6
	c0.1,0.1,0.1,0.1,0.2,0.2C15,5.9,15,6.1,15,6.3c0,0.1-0.1,0.2-0.1,0.2l-4.6,4.6c-0.1,0.1-0.3,0.2-0.5,0.2c-0.2,0-0.4-0.1-0.5-0.2
	C9.1,11,9,10.8,9,10.6s0.1-0.4,0.2-0.5l3.3-3.4H1.7C1.3,6.7,1,6.4,1,6S1.3,5.3,1.7,5.3z"/>
</svg>
